<?xml version="1.0" encoding="utf-8"?>
<!-- Generator: Adobe Illustrator 15.0.0, SVG Export Plug-In . SVG Version: 6.00 Build 0)  -->
<!DOCTYPE svg PUBLIC "-//W3C//DTD SVG 1.1//EN" "http://www.w3.org/Graphics/SVG/1.1/DTD/svg11.dtd">
<svg version="1.1" id="Layer_1" xmlns="http://www.w3.org/2000/svg" xmlns:xlink="http://www.w3.org/1999/xlink" x="0px" y="0px"
	 width="250px" height="250px" viewBox="50 9 250 250" enable-background="new 50 9 250 250" xml:space="preserve">
<g>
	<path fill="#FFFFFF" d="M281.64,201.855H68.36V78.82c0-5.394,4.374-9.766,9.766-9.766h193.748c5.393,0,9.766,4.372,9.766,9.766
		V201.855z"/>
	<rect x="68.36" y="86.649" fill="#84DBFF" width="213.279" height="115.207"/>
	<path fill="#FFFFFF" d="M68.36,218.785v-16.93H281.64v16.93c0,4.547-3.73,8.23-8.331,8.23H76.691
		C72.091,227.016,68.36,223.332,68.36,218.785z"/>
	<polygon fill="#FFFFFF" points="206.933,241.932 197.896,227.016 152.104,227.016 143.067,241.932 	"/>
	<path fill="#FFFFFF" d="M222.394,254.26c-0.789-6.934-6.738-12.328-13.971-12.328h-66.846c-7.23,0-13.182,5.395-13.971,12.328
		H222.394z"/>
	<g>
		<ellipse fill="#CED5E0" cx="175" cy="214.436" rx="6.367" ry="6.289"/>
	</g>
	<g>
		<path fill="#FFFFFF" stroke="#231F20" stroke-miterlimit="10" d="M116.75,194.262"/>
	</g>
	<ellipse fill="#589442" cx="174.996" cy="118.649" rx="64.759" ry="63.968"/>
	<g>
		<ellipse fill="#FFFFFF" cx="174.996" cy="118.649" rx="49.677" ry="49.072"/>
	</g>
	<g>
		<ellipse fill="#589442" cx="174.996" cy="118.649" rx="34.596" ry="34.173"/>
	</g>
	<g>
		<ellipse fill="#FFFFFF" cx="174.996" cy="118.649" rx="21.132" ry="20.875"/>
	</g>
	<g>
		<ellipse fill="#589442" cx="174.996" cy="118.649" rx="9.432" ry="9.317"/>
	</g>
	<polygon fill="#FFD05B" points="236.186,73.907 220.845,73.36 235.316,59.064 250.657,59.612 	"/>
	<polygon fill="#FFD05B" points="220.468,57.919 220.834,73.346 235.247,59.007 234.881,43.582 	"/>
	<g>
		<g>
			<path fill="#231F20" d="M284.317,247.857c-0.375,0-0.751-0.145-1.037-0.43c-0.572-0.57-0.572-1.5,0-2.072l2.514-2.514
				c0.572-0.572,1.499-0.572,2.071,0c0.572,0.57,0.572,1.5,0,2.072l-2.512,2.514C285.065,247.713,284.691,247.857,284.317,247.857z"
				/>
		</g>
		<g>
			<path fill="#231F20" d="M276.448,255.725c-0.374,0-0.75-0.143-1.036-0.43c-0.572-0.572-0.572-1.498,0-2.07l2.515-2.516
				c0.571-0.572,1.499-0.572,2.071,0c0.571,0.572,0.571,1.502,0,2.072l-2.515,2.514
				C277.197,255.582,276.822,255.725,276.448,255.725z"/>
		</g>
		<g>
			<path fill="#231F20" d="M286.83,255.725c-0.376,0-0.75-0.143-1.036-0.43l-2.514-2.514c-0.572-0.572-0.572-1.5,0-2.072
				s1.501-0.572,2.073,0l2.512,2.516c0.572,0.572,0.572,1.498,0,2.07C287.579,255.582,287.204,255.725,286.83,255.725z"/>
		</g>
		<g>
			<path fill="#231F20" d="M278.962,247.857c-0.376,0-0.75-0.145-1.035-0.43l-2.515-2.514c-0.572-0.572-0.572-1.5,0-2.072
				s1.499-0.572,2.071,0l2.515,2.514c0.571,0.572,0.571,1.5,0,2.072C279.712,247.713,279.336,247.857,278.962,247.857z"/>
		</g>
	</g>
	<g>
		<path fill="#231F20" d="M271.872,67.59h-27.206l7.021-6.936c0.416-0.411,0.548-1.03,0.336-1.574
			c-0.214-0.545-0.729-0.911-1.312-0.932l-14.03-0.501l-0.334-14.1c-0.015-0.585-0.375-1.106-0.917-1.325
			c-0.546-0.218-1.163-0.092-1.579,0.321l-14.414,14.338c-0.284,0.283-0.44,0.671-0.433,1.073l0.229,9.636h-2.89
			c-11.339-8.983-25.713-14.375-41.346-14.375S144.99,58.606,133.65,67.59H78.126c-6.191,0-11.23,5.039-11.23,11.23v139.965
			c0,5.346,4.395,9.695,9.798,9.695h72.812l-7.264,11.986h-0.664c-7.909,0-14.541,5.859-15.428,13.627l-0.186,1.631h98.072
			l-0.188-1.631c-0.883-7.768-7.517-13.627-15.426-13.627h-0.666l-7.262-11.986h72.813c5.399,0,9.794-4.35,9.794-9.695V78.82
			C283.103,72.628,278.065,67.59,271.872,67.59z M235.896,60.551l11.318,0.404L235.606,72.42l-11.318-0.403L235.896,60.551z
			 M233.498,47.024l0.27,11.389l-11.549,11.49l-0.271-11.389L233.498,47.024z M174.996,56.145c16.918,0,32.293,6.602,43.661,17.317
			l-44.691,44.145c-0.575,0.568-0.581,1.496-0.013,2.071c0.288,0.29,0.665,0.436,1.043,0.436c0.372,0,0.744-0.142,1.03-0.423
			l44.716-44.171c10.858,11.227,17.548,26.416,17.548,43.129c0,34.464-28.394,62.503-63.294,62.503s-63.293-28.039-63.293-62.503
			C111.703,84.184,140.096,56.145,174.996,56.145z M69.825,78.82c0-4.577,3.725-8.301,8.301-8.301h52.062
			c-4.701,4.276-8.773,9.215-12.071,14.665H69.825V78.82z M208.423,243.396c5.852,0,10.839,3.939,12.218,9.398h-91.283
			c1.381-5.459,6.37-9.398,12.22-9.398H208.423z M204.333,240.467h-58.666l7.261-11.986h44.145L204.333,240.467z M280.173,218.785
			c0,3.73-3.08,6.766-6.864,6.766H76.693c-3.788,0-6.868-3.035-6.868-6.766V203.32h210.348V218.785z M280.173,200.391H69.825V88.114
			h46.625c-4.893,9.123-7.677,19.512-7.677,30.535c0,36.08,29.708,65.433,66.223,65.433c36.515,0,66.224-29.354,66.224-65.433
			c0-11.023-2.785-21.412-7.68-30.535h46.633V200.391z M280.173,85.184h-48.298c-2.22-3.668-4.817-7.081-7.696-10.239l11.956,0.426
			c0.017,0.001,0.034,0.001,0.051,0.001c0.384,0,0.754-0.152,1.028-0.422l4.486-4.43h30.172c4.578,0,8.301,3.724,8.301,8.301V85.184
			z"/>
		<path fill="#231F20" d="M275.372,30.016c0.376,0,0.75-0.143,1.036-0.429l2.514-2.513c0.572-0.571,0.572-1.499,0-2.071
			s-1.499-0.572-2.071,0l-2.514,2.513c-0.572,0.571-0.572,1.499,0,2.071C274.623,29.873,274.997,30.016,275.372,30.016z"/>
		<path fill="#231F20" d="M267.505,37.885c0.375,0,0.749-0.143,1.035-0.429l2.514-2.514c0.572-0.572,0.572-1.499,0-2.071
			s-1.499-0.572-2.071,0l-2.514,2.514c-0.572,0.572-0.572,1.5,0,2.072C266.755,37.742,267.129,37.885,267.505,37.885z"/>
		<path fill="#231F20" d="M276.41,32.871c-0.574-0.572-1.499-0.572-2.073,0c-0.57,0.571-0.57,1.499,0,2.071l2.514,2.514
			c0.286,0.286,0.66,0.429,1.035,0.429c0.374,0,0.75-0.143,1.036-0.429c0.572-0.571,0.572-1.5,0-2.072L276.41,32.871z"/>
		<path fill="#231F20" d="M268.982,29.587c0.286,0.286,0.662,0.429,1.036,0.429c0.376,0,0.749-0.143,1.035-0.429
			c0.572-0.572,0.572-1.5,0-2.071l-2.514-2.513c-0.572-0.572-1.499-0.572-2.071,0s-0.572,1.5,0,2.071L268.982,29.587z"/>
		<path fill="#231F20" d="M82.887,14.444c0.374,0,0.75-0.143,1.036-0.429l2.514-2.514c0.572-0.572,0.572-1.499,0-2.071
			s-1.499-0.572-2.071,0l-2.514,2.514c-0.572,0.572-0.572,1.499,0,2.071C82.137,14.301,82.513,14.444,82.887,14.444z"/>
		<path fill="#231F20" d="M75.019,22.312c0.376,0,0.75-0.143,1.036-0.429l2.514-2.513c0.57-0.572,0.57-1.5,0-2.072
			c-0.572-0.572-1.499-0.572-2.073,0l-2.512,2.513c-0.572,0.572-0.572,1.499,0,2.071C74.269,22.168,74.643,22.312,75.019,22.312z"/>
		<path fill="#231F20" d="M84.365,21.882c0.286,0.286,0.662,0.429,1.036,0.429s0.75-0.143,1.036-0.429
			c0.572-0.572,0.572-1.5,0-2.071l-2.514-2.513c-0.572-0.572-1.5-0.572-2.072,0c-0.572,0.572-0.572,1.5,0,2.072L84.365,21.882z"/>
		<path fill="#231F20" d="M76.495,14.015c0.288,0.286,0.662,0.429,1.036,0.429c0.375,0,0.751-0.143,1.038-0.429
			c0.57-0.571,0.57-1.5,0-2.071l-2.514-2.514c-0.572-0.572-1.499-0.572-2.071,0c-0.572,0.571-0.572,1.499,0,2.071L76.495,14.015z"/>
		<path fill="#231F20" d="M150.394,23.987h15.804c0.811,0,1.465-0.656,1.465-1.465c0-0.809-0.654-1.465-1.465-1.465h-15.804
			c-0.809,0-1.465,0.656-1.465,1.465C148.929,23.331,149.585,23.987,150.394,23.987z"/>
		<path fill="#231F20" d="M164.684,26.811c-0.81,0-1.465,0.656-1.465,1.465s0.655,1.465,1.465,1.465h7.73
			c0.809,0,1.465-0.656,1.465-1.465s-0.656-1.465-1.465-1.465H164.684z"/>
		<path fill="#231F20" d="M173.367,23.987h7.366c0.809,0,1.465-0.656,1.465-1.465c0-0.809-0.656-1.465-1.465-1.465h-7.366
			c-0.807,0-1.465,0.656-1.465,1.465C171.902,23.331,172.561,23.987,173.367,23.987z"/>
		<path fill="#231F20" d="M157.536,26.811c-0.809,0-1.465,0.656-1.465,1.465s0.656,1.465,1.465,1.465h1.507
			c0.809,0,1.465-0.656,1.465-1.465s-0.656-1.465-1.465-1.465H157.536z"/>
	</g>
	<g>
		<path fill="#231F20" d="M100.158,239.057c0-0.809-0.656-1.465-1.465-1.465H82.887c-0.809,0-1.465,0.656-1.465,1.465
			s0.656,1.465,1.465,1.465h15.806C99.501,240.521,100.158,239.865,100.158,239.057z"/>
		<path fill="#231F20" d="M104.907,243.344h-7.73c-0.809,0-1.465,0.656-1.465,1.465s0.656,1.465,1.465,1.465h7.73
			c0.809,0,1.465-0.656,1.465-1.465S105.715,243.344,104.907,243.344z"/>
		<path fill="#231F20" d="M113.229,237.592h-7.366c-0.809,0-1.465,0.656-1.465,1.465s0.656,1.465,1.465,1.465h7.366
			c0.807,0,1.465-0.656,1.465-1.465S114.036,237.592,113.229,237.592z"/>
		<path fill="#231F20" d="M91.538,243.344h-1.507c-0.809,0-1.465,0.656-1.465,1.465s0.656,1.465,1.465,1.465h1.507
			c0.809,0,1.465-0.656,1.465-1.465S92.347,243.344,91.538,243.344z"/>
	</g>
	<g>
		<circle fill="#84DBFF" cx="232.761" cy="19.59" r="4.176"/>
	</g>
	<g>
		<circle fill="#589442" cx="295.824" cy="159.756" r="4.176"/>
	</g>
	<g>
		<circle fill="#E6E9EE" cx="110.239" cy="39.339" r="4.176"/>
	</g>
	<g>
		<circle fill="#FFD05B" cx="54.176" cy="86.649" r="4.176"/>
	</g>
	<g>
		<circle fill="#E6E9EE" cx="250.994" cy="243.877" r="4.176"/>
	</g>
</g>
</svg>
