<?xml version="1.0" encoding="utf-8"?>
<!-- Generator: Adobe Illustrator 15.0.0, SVG Export Plug-In . SVG Version: 6.00 Build 0)  -->
<!DOCTYPE svg PUBLIC "-//W3C//DTD SVG 1.1//EN" "http://www.w3.org/Graphics/SVG/1.1/DTD/svg11.dtd">
<svg version="1.1" id="Layer_1" xmlns="http://www.w3.org/2000/svg" xmlns:xlink="http://www.w3.org/1999/xlink" x="0px" y="0px"
	 width="135px" height="35px" viewBox="0 0 135 35" enable-background="new 0 0 135 35" xml:space="preserve">
<g>
	<path fill="#FFFFFF" d="M54.385,7.471h-8.466v5.427h7.078c0.656,0,1.146,0.148,1.469,0.441c0.323,0.295,0.485,0.688,0.485,1.18
		c0,0.492-0.164,0.882-0.493,1.172c-0.328,0.289-0.815,0.434-1.461,0.434h-7.078v6.991c0,0.888-0.2,1.545-0.6,1.976
		c-0.401,0.429-0.915,0.643-1.542,0.643c-0.637,0-1.156-0.216-1.556-0.65c-0.401-0.434-0.601-1.091-0.601-1.968V6.792
		c0-0.618,0.092-1.122,0.275-1.512c0.183-0.392,0.471-0.676,0.861-0.854c0.391-0.179,0.89-0.268,1.498-0.268h10.131
		c0.686,0,1.195,0.152,1.527,0.456c0.333,0.304,0.499,0.701,0.499,1.194c0,0.502-0.166,0.905-0.499,1.209
		C55.58,7.32,55.071,7.471,54.385,7.471z"/>
	<path fill="#FFFFFF" d="M72.258,17.703c0,1.178-0.185,2.264-0.552,3.257c-0.366,0.994-0.896,1.848-1.591,2.562
		c-0.695,0.713-1.525,1.261-2.49,1.642c-0.964,0.382-2.05,0.571-3.256,0.571c-1.197,0-2.272-0.192-3.228-0.578
		c-0.956-0.386-1.783-0.938-2.482-1.657s-1.23-1.567-1.592-2.548c-0.362-0.979-0.542-2.062-0.542-3.249
		c0-1.196,0.183-2.291,0.55-3.284c0.366-0.994,0.892-1.844,1.577-2.548c0.685-0.703,1.515-1.246,2.49-1.627
		c0.975-0.381,2.05-0.572,3.228-0.572c1.196,0,2.282,0.193,3.256,0.579c0.975,0.386,1.81,0.936,2.504,1.65
		c0.695,0.713,1.223,1.562,1.584,2.547C72.075,15.432,72.258,16.518,72.258,17.703z M68.291,17.703c0-1.61-0.354-2.865-1.063-3.762
		c-0.709-0.898-1.663-1.346-2.858-1.346c-0.772,0-1.452,0.2-2.041,0.601c-0.589,0.401-1.042,0.991-1.361,1.773
		c-0.318,0.782-0.477,1.693-0.477,2.734c0,1.033,0.156,1.935,0.47,2.708c0.313,0.771,0.762,1.361,1.346,1.771
		c0.584,0.411,1.271,0.615,2.062,0.615c1.196,0,2.149-0.45,2.858-1.353C67.937,20.543,68.291,19.295,68.291,17.703z"/>
	<path fill="#FFFFFF" d="M89.419,17.703c0,1.178-0.184,2.264-0.551,3.257c-0.366,0.994-0.896,1.848-1.591,2.562
		c-0.694,0.713-1.525,1.261-2.49,1.642c-0.965,0.382-2.051,0.571-3.256,0.571c-1.196,0-2.272-0.192-3.228-0.578
		s-1.783-0.938-2.482-1.657s-1.231-1.567-1.593-2.548c-0.362-0.979-0.542-2.062-0.542-3.249c0-1.196,0.184-2.291,0.551-3.284
		c0.366-0.994,0.893-1.844,1.577-2.548c0.686-0.703,1.514-1.246,2.489-1.627c0.976-0.381,2.05-0.572,3.228-0.572
		c1.196,0,2.282,0.193,3.256,0.579c0.975,0.386,1.81,0.936,2.504,1.65c0.695,0.713,1.222,1.562,1.584,2.547
		S89.419,16.518,89.419,17.703z M85.454,17.703c0-1.61-0.355-2.865-1.065-3.762c-0.709-0.898-1.661-1.346-2.857-1.346
		c-0.772,0-1.452,0.2-2.04,0.601c-0.59,0.401-1.043,0.991-1.361,1.773c-0.319,0.782-0.479,1.693-0.479,2.734
		c0,1.033,0.157,1.935,0.472,2.708c0.312,0.771,0.763,1.361,1.345,1.771c0.584,0.411,1.272,0.615,2.063,0.615
		c1.196,0,2.148-0.45,2.857-1.353C85.099,20.543,85.454,19.295,85.454,17.703z"/>
	<path fill="#FFFFFF" d="M106.32,12.566v11.477c0,1.312-0.141,2.441-0.42,3.386c-0.28,0.946-0.729,1.728-1.346,2.346
		c-0.617,0.617-1.426,1.075-2.424,1.375c-0.999,0.299-2.242,0.448-3.727,0.448c-1.36,0-2.577-0.19-3.647-0.571
		c-1.071-0.381-1.896-0.874-2.475-1.476c-0.58-0.604-0.869-1.224-0.869-1.861c0-0.482,0.164-0.875,0.491-1.179
		c0.329-0.304,0.724-0.456,1.188-0.456c0.578,0,1.086,0.256,1.52,0.767c0.213,0.261,0.431,0.523,0.658,0.789
		c0.226,0.266,0.478,0.492,0.753,0.68c0.274,0.188,0.605,0.328,0.991,0.42s0.829,0.138,1.331,0.138c1.022,0,1.816-0.142,2.381-0.427
		s0.961-0.683,1.186-1.194c0.228-0.511,0.36-1.059,0.398-1.643c0.039-0.584,0.068-1.521,0.087-2.815
		c-0.607,0.851-1.309,1.497-2.105,1.94c-0.796,0.444-1.743,0.666-2.843,0.666c-1.322,0-2.479-0.338-3.467-1.015
		c-0.99-0.675-1.749-1.62-2.28-2.836c-0.53-1.215-0.796-2.619-0.796-4.211c0-1.187,0.162-2.258,0.485-3.213
		c0.323-0.956,0.784-1.76,1.383-2.417s1.288-1.151,2.068-1.484c0.782-0.333,1.642-0.499,2.577-0.499
		c1.119,0,2.089,0.215,2.908,0.644c0.82,0.429,1.582,1.102,2.288,2.019v-0.536c0-0.685,0.168-1.215,0.505-1.592
		c0.339-0.375,0.772-0.564,1.303-0.564c0.763,0,1.27,0.25,1.52,0.746C106.195,10.914,106.32,11.631,106.32,12.566z M94.873,17.574
		c0,1.601,0.349,2.812,1.049,3.632c0.698,0.82,1.604,1.23,2.713,1.23c0.657,0,1.277-0.177,1.859-0.528
		c0.585-0.353,1.06-0.883,1.427-1.592c0.366-0.709,0.549-1.57,0.549-2.584c0-1.611-0.354-2.865-1.062-3.763
		c-0.71-0.896-1.644-1.345-2.801-1.345c-1.129,0-2.033,0.429-2.714,1.287C95.212,14.771,94.873,15.992,94.873,17.574z"/>
	<path fill="#FFFFFF" d="M113.105,20.034v3.299c0,0.802-0.188,1.402-0.564,1.803c-0.377,0.4-0.854,0.6-1.434,0.6
		c-0.568,0-1.036-0.202-1.404-0.607c-0.366-0.405-0.549-1.003-0.549-1.795V12.334c0-1.775,0.642-2.663,1.925-2.663
		c0.656,0,1.129,0.208,1.418,0.623c0.289,0.416,0.449,1.028,0.479,1.838c0.472-0.81,0.957-1.422,1.454-1.838
		c0.496-0.414,1.16-0.623,1.989-0.623c0.83,0,1.636,0.208,2.417,0.623c0.782,0.416,1.173,0.965,1.173,1.65
		c0,0.482-0.166,0.881-0.5,1.193c-0.332,0.314-0.691,0.47-1.077,0.47c-0.145,0-0.495-0.089-1.05-0.268
		c-0.556-0.179-1.045-0.267-1.469-0.267c-0.58,0-1.052,0.151-1.418,0.455c-0.367,0.305-0.651,0.755-0.854,1.354
		c-0.203,0.598-0.343,1.309-0.42,2.134C113.144,17.841,113.105,18.848,113.105,20.034z"/>
	<path fill="#FFFFFF" d="M130.672,23.507c-0.955,0.743-1.879,1.3-2.771,1.672c-0.892,0.371-1.894,0.557-3.003,0.557
		c-1.013,0-1.902-0.199-2.67-0.6c-0.767-0.4-1.358-0.943-1.772-1.629c-0.416-0.685-0.623-1.428-0.623-2.228
		c0-1.081,0.343-2.004,1.027-2.765c0.686-0.763,1.627-1.274,2.823-1.534c0.25-0.058,0.872-0.189,1.866-0.391
		c0.994-0.203,1.846-0.388,2.555-0.557c0.709-0.169,1.479-0.375,2.308-0.616c-0.048-1.042-0.257-1.806-0.629-2.294
		c-0.371-0.487-1.141-0.73-2.308-0.73c-1.004,0-1.759,0.14-2.267,0.42c-0.506,0.28-0.939,0.7-1.302,1.259
		c-0.361,0.56-0.618,0.929-0.767,1.107c-0.15,0.179-0.471,0.268-0.963,0.268c-0.444,0-0.827-0.142-1.15-0.427
		s-0.485-0.648-0.485-1.092c0-0.694,0.246-1.371,0.738-2.026c0.492-0.657,1.259-1.196,2.302-1.622
		c1.041-0.425,2.34-0.636,3.894-0.636c1.736,0,3.101,0.205,4.096,0.614c0.993,0.411,1.695,1.06,2.105,1.947
		c0.409,0.888,0.615,2.064,0.615,3.531c0,0.927-0.004,1.713-0.008,2.359c-0.005,0.646-0.012,1.364-0.021,2.156
		c0,0.742,0.123,1.518,0.368,2.323c0.247,0.806,0.37,1.323,0.37,1.556c0,0.405-0.191,0.773-0.572,1.107
		c-0.382,0.332-0.812,0.498-1.295,0.498c-0.405,0-0.806-0.189-1.201-0.571C131.536,24.783,131.116,24.231,130.672,23.507z
		 M130.411,17.791c-0.578,0.211-1.42,0.436-2.525,0.672c-1.104,0.237-1.868,0.41-2.294,0.521c-0.425,0.111-0.83,0.328-1.216,0.651
		s-0.578,0.775-0.578,1.354c0,0.599,0.227,1.106,0.68,1.526c0.454,0.42,1.047,0.63,1.78,0.63c0.781,0,1.503-0.171,2.164-0.514
		c0.66-0.342,1.146-0.784,1.455-1.324c0.356-0.599,0.534-1.582,0.534-2.952V17.791z"/>
</g>
<g>
	<path fill="#FFFFFF" d="M5.519,25.867L6.7,27.262c-0.824-0.607-1.675-1.33-2.556-2.268C1.575,22.266,0,18.588,0,14.537
		C0,9.97,2.004,5.869,5.189,3.078L3.471,19.339c-0.049,0.479-0.056,0.938-0.014,1.374C3.557,22.624,4.266,24.406,5.519,25.867z"/>
	<path fill="#FFFFFF" d="M23.419,24.471l-3.922,4.603c-0.606,0.718-3.433,4.252-4.23,5.927l-0.007-0.007
		c-0.715-1.503-3.581-5.204-4.188-5.92L7.15,24.471c-0.945-1.108-1.489-2.469-1.553-3.914c-0.036-0.322-0.029-0.658,0.007-0.996
		L7.343,3.12C7.4,2.512,7.895,2.054,8.496,2.054c0.007,0,0.007,0,0.014,0h0.008c0.586,0,1.066,0.479,1.059,1.066v15.054
		c0,0.078,0.007,0.164,0.036,0.229c0.101,0.457,0.508,0.801,0.995,0.801c0.573,0,1.03-0.465,1.03-1.029V1.346
		c0-0.358,0.144-0.701,0.395-0.944C12.289,0.144,12.633,0,12.983,0c0.708,0.007,1.274,0.573,1.274,1.274v16.899
		c0,0.564,0.458,1.022,1.023,1.022c0.008,0,0.008,0,0.008,0c0.565,0,1.03-0.466,1.03-1.03V1.41c0-0.78,0.616-1.403,1.389-1.403
		c0,0,0.007,0,0.014,0h0.021c0.344,0,0.673,0.137,0.91,0.38c0.25,0.243,0.386,0.579,0.386,0.937L19.031,17.55l0.007,0.616
		c0,0.564,0.458,1.03,1.031,1.03c0,0,0.007,0,0.015,0c0.551,0,1.009-0.458,1.009-1.022l0.008-0.123L21.093,3.178
		c0-0.301,0.115-0.58,0.329-0.794c0.208-0.215,0.501-0.337,0.802-0.337c0.516,0,0.945,0.394,0.995,0.909l1.753,16.604
		c0.007,0.072,0.015,0.15,0.015,0.236C25.086,21.494,24.529,23.176,23.419,24.471z"/>
	<path fill="#FFFFFF" d="M30.534,14.537c0,4.051-1.575,7.723-4.144,10.457c-0.852,0.908-1.675,1.617-2.47,2.204l1.138-1.339
		c1.453-1.696,2.19-3.871,2.076-6.126c-0.007-0.165-0.015-0.308-0.029-0.408L25.402,3.12C28.551,5.919,30.534,10,30.534,14.537z"/>
</g>
</svg>
